<svg width="143" height="30" viewBox="0 0 143 30" fill="none" xmlns="http://www.w3.org/2000/svg">
<g filter="url(#filter0_d_3_25)">
<path fill-rule="evenodd" clip-rule="evenodd" d="M15.9725 20.3682C12.7335 20.3682 9.96649 19.8782 9.96649 17.9162C9.96649 15.9542 12.7155 14.2462 15.9725 14.2462C19.2115 14.2462 21.9785 15.9382 21.9785 17.8992C21.9785 19.8602 19.2295 20.3682 15.9725 20.3682Z" stroke="white" stroke-width="2" stroke-linecap="round" stroke-linejoin="round"/>
<path fill-rule="evenodd" clip-rule="evenodd" d="M15.9725 11.4487C18.0985 11.4487 19.8225 9.72569 19.8225 7.59969C19.8225 5.47369 18.0985 3.74969 15.9725 3.74969C13.8465 3.74969 12.1225 5.47369 12.1225 7.59969C12.1165 9.71769 13.8265 11.4417 15.9455 11.4487H15.9725Z" stroke="white" stroke-width="2" stroke-linecap="round" stroke-linejoin="round"/>
<path d="M22.3622 10.3916C23.5992 10.0606 24.5112 8.9326 24.5112 7.5896C24.5112 6.1886 23.5182 5.0186 22.1962 4.7486" stroke="white" stroke-width="2" stroke-linecap="round" stroke-linejoin="round"/>
<path d="M22.9432 13.5444C24.6972 13.5444 26.1952 14.7334 26.1952 15.7954C26.1952 16.4204 25.6782 17.1014 24.8942 17.2854" stroke="white" stroke-width="2" stroke-linecap="round" stroke-linejoin="round"/>
<path d="M9.58378 10.3916C8.34578 10.0606 7.43378 8.9326 7.43378 7.5896C7.43378 6.1886 8.42778 5.0186 9.74878 4.7486" stroke="white" stroke-width="2" stroke-linecap="round" stroke-linejoin="round"/>
<path d="M9.00179 13.5444C7.24779 13.5444 5.74979 14.7334 5.74979 15.7954C5.74979 16.4204 6.26679 17.1014 7.05179 17.2854" stroke="white" stroke-width="2" stroke-linecap="round" stroke-linejoin="round"/>
</g>
<g filter="url(#filter1_d_3_25)">
<path d="M41.8438 18H39.4219V8.59375H36.3203V6.57812H44.9453V8.59375H41.8438V18ZM50.1172 9.10156C50.9245 9.10156 51.6198 9.25781 52.2031 9.57031C52.7865 9.8776 53.237 10.3255 53.5547 10.9141C53.8724 11.5026 54.0312 12.2214 54.0312 13.0703V14.2266H48.3984C48.4245 14.8984 48.625 15.4271 49 15.8125C49.3802 16.1927 49.9062 16.3828 50.5781 16.3828C51.1354 16.3828 51.6458 16.3255 52.1094 16.2109C52.5729 16.0964 53.0495 15.9245 53.5391 15.6953V17.5391C53.1068 17.7526 52.6536 17.9089 52.1797 18.0078C51.7109 18.1068 51.1406 18.1562 50.4688 18.1562C49.5938 18.1562 48.8177 17.9948 48.1406 17.6719C47.4688 17.349 46.9401 16.8568 46.5547 16.1953C46.1745 15.5339 45.9844 14.7005 45.9844 13.6953C45.9844 12.6745 46.1562 11.8255 46.5 11.1484C46.849 10.4661 47.3333 9.95573 47.9531 9.61719C48.5729 9.27344 49.2943 9.10156 50.1172 9.10156ZM50.1328 10.7969C49.6693 10.7969 49.2839 10.9453 48.9766 11.2422C48.6745 11.5391 48.5 12.0052 48.4531 12.6406H51.7969C51.7917 12.2865 51.7266 11.9714 51.6016 11.6953C51.4818 11.4193 51.2995 11.2005 51.0547 11.0391C50.8151 10.8776 50.5078 10.7969 50.1328 10.7969ZM59.5469 9.08594C60.7188 9.08594 61.6172 9.34115 62.2422 9.85156C62.8672 10.362 63.1797 11.138 63.1797 12.1797V18H61.5156L61.0547 16.8125H60.9922C60.7422 17.125 60.487 17.3802 60.2266 17.5781C59.9661 17.776 59.6667 17.9219 59.3281 18.0156C58.9896 18.1094 58.5781 18.1562 58.0938 18.1562C57.5781 18.1562 57.1146 18.0573 56.7031 17.8594C56.2969 17.6615 55.9766 17.3594 55.7422 16.9531C55.5078 16.5417 55.3906 16.0208 55.3906 15.3906C55.3906 14.4635 55.7161 13.7812 56.3672 13.3438C57.0182 12.901 57.9948 12.6562 59.2969 12.6094L60.8125 12.5625V12.1797C60.8125 11.7214 60.6927 11.3854 60.4531 11.1719C60.2135 10.9583 59.8802 10.8516 59.4531 10.8516C59.0312 10.8516 58.6172 10.9115 58.2109 11.0312C57.8047 11.151 57.3984 11.3021 56.9922 11.4844L56.2031 9.875C56.6667 9.63021 57.1849 9.4375 57.7578 9.29688C58.3359 9.15625 58.9323 9.08594 59.5469 9.08594ZM60.8125 13.9531L59.8906 13.9844C59.1198 14.0052 58.5833 14.1432 58.2812 14.3984C57.9844 14.6536 57.8359 14.9896 57.8359 15.4062C57.8359 15.7708 57.9427 16.0312 58.1562 16.1875C58.3698 16.3385 58.6484 16.4141 58.9922 16.4141C59.5026 16.4141 59.9323 16.263 60.2812 15.9609C60.6354 15.6589 60.8125 15.2292 60.8125 14.6719V13.9531ZM75.8984 9.10156C76.888 9.10156 77.6354 9.35677 78.1406 9.86719C78.651 10.3724 78.9062 11.1849 78.9062 12.3047V18H76.5156V12.8984C76.5156 12.2734 76.4089 11.8021 76.1953 11.4844C75.9818 11.1667 75.651 11.0078 75.2031 11.0078C74.5729 11.0078 74.125 11.2344 73.8594 11.6875C73.5938 12.1354 73.4609 12.7786 73.4609 13.6172V18H71.0781V12.8984C71.0781 12.4818 71.0312 12.1328 70.9375 11.8516C70.8438 11.5703 70.7005 11.3594 70.5078 11.2188C70.3151 11.0781 70.0677 11.0078 69.7656 11.0078C69.3229 11.0078 68.974 11.1198 68.7188 11.3438C68.4688 11.5625 68.2891 11.888 68.1797 12.3203C68.0755 12.7474 68.0234 13.2708 68.0234 13.8906V18H65.6406V9.26562H67.4609L67.7812 10.3828H67.9141C68.0911 10.0807 68.3125 9.83594 68.5781 9.64844C68.849 9.46094 69.1458 9.32292 69.4688 9.23438C69.7917 9.14583 70.1198 9.10156 70.4531 9.10156C71.0938 9.10156 71.6354 9.20573 72.0781 9.41406C72.526 9.6224 72.8698 9.94531 73.1094 10.3828H73.3203C73.5807 9.9349 73.9479 9.60938 74.4219 9.40625C74.901 9.20312 75.3932 9.10156 75.8984 9.10156ZM90.5547 8.42969C90.0911 8.42969 89.6797 8.52083 89.3203 8.70312C88.9661 8.88021 88.6667 9.13802 88.4219 9.47656C88.1823 9.8151 88 10.224 87.875 10.7031C87.75 11.1823 87.6875 11.7214 87.6875 12.3203C87.6875 13.1276 87.7865 13.8177 87.9844 14.3906C88.1875 14.9583 88.5 15.3932 88.9219 15.6953C89.3438 15.9922 89.888 16.1406 90.5547 16.1406C91.0182 16.1406 91.4818 16.0885 91.9453 15.9844C92.4141 15.8802 92.9219 15.7318 93.4688 15.5391V17.5703C92.9635 17.7786 92.4661 17.9271 91.9766 18.0156C91.487 18.1094 90.9375 18.1562 90.3281 18.1562C89.151 18.1562 88.1823 17.9141 87.4219 17.4297C86.6667 16.9401 86.1068 16.2578 85.7422 15.3828C85.3776 14.5026 85.1953 13.4766 85.1953 12.3047C85.1953 11.4401 85.3125 10.6484 85.5469 9.92969C85.7812 9.21094 86.125 8.58854 86.5781 8.0625C87.0312 7.53646 87.5911 7.13021 88.2578 6.84375C88.9245 6.55729 89.6901 6.41406 90.5547 6.41406C91.1224 6.41406 91.6901 6.48698 92.2578 6.63281C92.8307 6.77344 93.3776 6.96875 93.8984 7.21875L93.1172 9.1875C92.6901 8.98438 92.2604 8.80729 91.8281 8.65625C91.3958 8.50521 90.9714 8.42969 90.5547 8.42969ZM98.1016 5.84375V8.32031C98.1016 8.7526 98.0859 9.16406 98.0547 9.55469C98.0286 9.94531 98.0078 10.2214 97.9922 10.3828H98.1172C98.3047 10.0807 98.526 9.83594 98.7812 9.64844C99.0417 9.46094 99.3281 9.32292 99.6406 9.23438C99.9531 9.14583 100.289 9.10156 100.648 9.10156C101.279 9.10156 101.828 9.21354 102.297 9.4375C102.766 9.65625 103.13 10.0026 103.391 10.4766C103.651 10.9453 103.781 11.5547 103.781 12.3047V18H101.398V12.8984C101.398 12.2734 101.284 11.8021 101.055 11.4844C100.826 11.1667 100.471 11.0078 99.9922 11.0078C99.513 11.0078 99.1354 11.1198 98.8594 11.3438C98.5833 11.5625 98.388 11.888 98.2734 12.3203C98.1589 12.7474 98.1016 13.2708 98.1016 13.8906V18H95.7188V5.84375H98.1016ZM109.812 9.08594C110.984 9.08594 111.883 9.34115 112.508 9.85156C113.133 10.362 113.445 11.138 113.445 12.1797V18H111.781L111.32 16.8125H111.258C111.008 17.125 110.753 17.3802 110.492 17.5781C110.232 17.776 109.932 17.9219 109.594 18.0156C109.255 18.1094 108.844 18.1562 108.359 18.1562C107.844 18.1562 107.38 18.0573 106.969 17.8594C106.562 17.6615 106.242 17.3594 106.008 16.9531C105.773 16.5417 105.656 16.0208 105.656 15.3906C105.656 14.4635 105.982 13.7812 106.633 13.3438C107.284 12.901 108.26 12.6562 109.562 12.6094L111.078 12.5625V12.1797C111.078 11.7214 110.958 11.3854 110.719 11.1719C110.479 10.9583 110.146 10.8516 109.719 10.8516C109.297 10.8516 108.883 10.9115 108.477 11.0312C108.07 11.151 107.664 11.3021 107.258 11.4844L106.469 9.875C106.932 9.63021 107.451 9.4375 108.023 9.29688C108.602 9.15625 109.198 9.08594 109.812 9.08594ZM111.078 13.9531L110.156 13.9844C109.385 14.0052 108.849 14.1432 108.547 14.3984C108.25 14.6536 108.102 14.9896 108.102 15.4062C108.102 15.7708 108.208 16.0312 108.422 16.1875C108.635 16.3385 108.914 16.4141 109.258 16.4141C109.768 16.4141 110.198 16.263 110.547 15.9609C110.901 15.6589 111.078 15.2292 111.078 14.6719V13.9531ZM119.586 16.2578C119.846 16.2578 120.099 16.2318 120.344 16.1797C120.594 16.1276 120.841 16.0625 121.086 15.9844V17.7578C120.831 17.8724 120.513 17.9661 120.133 18.0391C119.758 18.1172 119.346 18.1562 118.898 18.1562C118.378 18.1562 117.909 18.0729 117.492 17.9062C117.081 17.7344 116.755 17.4401 116.516 17.0234C116.281 16.6016 116.164 16.0156 116.164 15.2656V11.0547H115.023V10.0469L116.336 9.25L117.023 7.40625H118.547V9.26562H120.992V11.0547H118.547V15.2656C118.547 15.599 118.641 15.849 118.828 16.0156C119.021 16.1771 119.273 16.2578 119.586 16.2578Z" fill="white"/>
</g>
<defs>
<filter id="filter0_d_3_25" x="0" y="0" width="32" height="32" filterUnits="userSpaceOnUse" color-interpolation-filters="sRGB">
<feFlood flood-opacity="0" result="BackgroundImageFix"/>
<feColorMatrix in="SourceAlpha" type="matrix" values="0 0 0 0 0 0 0 0 0 0 0 0 0 0 0 0 0 0 127 0" result="hardAlpha"/>
<feOffset dy="4"/>
<feGaussianBlur stdDeviation="2"/>
<feComposite in2="hardAlpha" operator="out"/>
<feColorMatrix type="matrix" values="0 0 0 0 0 0 0 0 0 0 0 0 0 0 0 0 0 0 0.25 0"/>
<feBlend mode="normal" in2="BackgroundImageFix" result="effect1_dropShadow_3_25"/>
<feBlend mode="normal" in="SourceGraphic" in2="effect1_dropShadow_3_25" result="shape"/>
</filter>
<filter id="filter1_d_3_25" x="32.3203" y="5.84375" width="92.7656" height="20.3125" filterUnits="userSpaceOnUse" color-interpolation-filters="sRGB">
<feFlood flood-opacity="0" result="BackgroundImageFix"/>
<feColorMatrix in="SourceAlpha" type="matrix" values="0 0 0 0 0 0 0 0 0 0 0 0 0 0 0 0 0 0 127 0" result="hardAlpha"/>
<feOffset dy="4"/>
<feGaussianBlur stdDeviation="2"/>
<feComposite in2="hardAlpha" operator="out"/>
<feColorMatrix type="matrix" values="0 0 0 0 0 0 0 0 0 0 0 0 0 0 0 0 0 0 0.25 0"/>
<feBlend mode="normal" in2="BackgroundImageFix" result="effect1_dropShadow_3_25"/>
<feBlend mode="normal" in="SourceGraphic" in2="effect1_dropShadow_3_25" result="shape"/>
</filter>
</defs>
</svg>
