<svg width="20" height="20" viewBox="0 0 20 20" fill="none" xmlns="http://www.w3.org/2000/svg">
<path d="M10.0002 0.750122C3.06318 0.750122 0.750183 3.06312 0.750183 10.0001C0.750183 16.9371 3.06318 19.2501 10.0002 19.2501C16.9372 19.2501 19.2502 16.9371 19.2502 10.0001" stroke="#333333" stroke-width="1.5" stroke-linecap="round" stroke-linejoin="round"/>
<path fill-rule="evenodd" clip-rule="evenodd" d="M17.5285 2.30382V2.30382C16.5355 1.42482 15.0185 1.51682 14.1395 2.50982C14.1395 2.50982 9.77046 7.44482 8.25546 9.15782C6.73846 10.8698 7.85046 13.2348 7.85046 13.2348C7.85046 13.2348 10.3545 14.0278 11.8485 12.3398C13.3435 10.6518 17.7345 5.69282 17.7345 5.69282C18.6135 4.69982 18.5205 3.18282 17.5285 2.30382Z" stroke="#333333" stroke-width="1.5" stroke-linecap="round" stroke-linejoin="round"/>
<path d="M13.009 3.80084L16.604 6.98384" stroke="#333333" stroke-width="1.5" stroke-linecap="round" stroke-linejoin="round"/>
</svg>
